<svg width="124" height="32" viewBox="0 0 124 32" fill="none" xmlns="http://www.w3.org/2000/svg">
<path d="M12.8571 9.53571V11.1429H11.25V9.53571H12.8571ZM11.25 9.53571V11.1429H9.64286V9.53571H11.25ZM11.25 11.1429V12.75H9.64286V11.1429H11.25ZM12.8571 11.1429V12.75H11.25V11.1429H12.8571ZM9.64286 11.1429V12.75H8.03571V11.1429H9.64286ZM8.03571 11.1429V12.75H6.42857V11.1429H8.03571ZM9.64286 12.75V14.3571H8.03571V12.75H9.64286ZM8.03571 12.75V14.3571H6.42857V12.75H8.03571ZM6.42857 12.75V14.3571H4.82143V12.75H6.42857ZM4.82143 12.75V14.3571H3.21429V12.75H4.82143ZM4.82143 14.3571V15.9643H3.21429V14.3571H4.82143ZM6.42857 14.3571V15.9643H4.82143V14.3571H6.42857ZM3.21429 14.3571V15.9643H1.60714V14.3571H3.21429ZM1.60714 14.3571V15.9643H0V14.3571H1.60714ZM1.60714 15.9643V17.5714H0V15.9643H1.60714ZM3.21429 15.9643V17.5714H1.60714V15.9643H3.21429ZM3.21429 17.5714V19.1786H1.60714V17.5714H3.21429ZM1.60714 17.5714V19.1786H0V17.5714H1.60714ZM4.82143 17.5714V19.1786H3.21429V17.5714H4.82143ZM4.82143 15.9643V17.5714H3.21429V15.9643H4.82143ZM4.82143 19.1786V20.7857H3.21429V19.1786H4.82143ZM6.42857 19.1786V20.7857H4.82143V19.1786H6.42857ZM6.42857 17.5714V19.1786H4.82143V17.5714H6.42857ZM8.03571 19.1786V20.7857H6.42857V19.1786H8.03571ZM8.03571 20.7857V22.3929H6.42857V20.7857H8.03571ZM9.64286 20.7857V22.3929H8.03571V20.7857H9.64286ZM9.64286 19.1786V20.7857H8.03571V19.1786H9.64286ZM11.25 20.7857V22.3929H9.64286V20.7857H11.25ZM12.8571 20.7857V22.3929H11.25V20.7857H12.8571ZM12.8571 22.3929V24H11.25V22.3929H12.8571ZM9.64286 22.3929H11.25V24H9.64286V22.3929ZM8.03571 22.3929H9.64286V24H8.03571V22.3929ZM4.82143 20.7857H6.42857V22.3929H4.82143V20.7857ZM1.60714 19.1786H3.21429V20.7857H1.60714V19.1786ZM8.03571 9.53571H9.64286V11.1429H8.03571V9.53571ZM4.82143 11.1429H6.42857V12.75H4.82143V11.1429ZM1.60714 12.75H3.21429V14.3571H1.60714V12.75ZM14.4727 7.92857H16.0798V9.53571H14.4727V7.92857ZM16.0798 7.92857H17.6869V9.53571H16.0798V7.92857ZM16.0798 9.53571H17.6869V11.1429H16.0798V9.53571ZM16.0798 11.1429H17.6869V12.75H16.0798V11.1429ZM16.0798 12.75H17.6869V14.3571H16.0798V12.75ZM14.4727 11.1429H16.0798V12.75H14.4727V11.1429ZM14.4727 9.53571H16.0798V11.1429H14.4727V9.53571ZM14.4727 12.75H16.0798V14.3571H14.4727V12.75ZM14.4727 14.3571H16.0798V15.9643H14.4727V14.3571ZM14.4727 17.5714H16.0798V19.1786H14.4727V17.5714ZM14.4727 15.9643H16.0798V17.5714H14.4727V15.9643ZM16.0798 14.3571H17.6869V15.9643H16.0798V14.3571ZM16.0798 15.9643H17.6869V17.5714H16.0798V15.9643ZM16.0798 17.5714H17.6869V19.1786H16.0798V17.5714ZM16.0798 19.1786H17.6869V20.7857H16.0798V19.1786ZM14.4727 19.1786H16.0798V20.7857H14.4727V19.1786ZM14.4727 22.3929H16.0798V24H14.4727V22.3929ZM16.0798 22.3929H17.6869V24H16.0798V22.3929ZM16.0798 20.7857H17.6869V22.3929H16.0798V20.7857ZM14.4727 20.7857H16.0798V22.3929H14.4727V20.7857ZM24.1155 22.3929H25.7227V24H24.1155V22.3929ZM24.1155 20.7857H25.7227V22.3929H24.1155V20.7857ZM24.1155 19.1786H25.7227V20.7857H24.1155V19.1786ZM24.1155 17.5714H25.7227V19.1786H24.1155V17.5714ZM24.1155 15.9643H25.7227V17.5714H24.1155V15.9643ZM24.1155 14.3571H25.7227V15.9643H24.1155V14.3571ZM24.1155 7.92857H25.7227V9.53571H24.1155V7.92857ZM22.5084 7.92857H24.1155V9.53571H22.5084V7.92857ZM22.5084 9.53571H24.1155V11.1429H22.5084V9.53571ZM22.5084 11.1429H24.1155V12.75H22.5084V11.1429ZM22.5084 12.75H24.1155V14.3571H22.5084V12.75ZM24.1155 12.75H25.7227V14.3571H24.1155V12.75ZM24.1155 11.1429H25.7227V12.75H24.1155V11.1429ZM24.1155 9.53571H25.7227V11.1429H24.1155V9.53571ZM22.5084 14.3571H24.1155V15.9643H22.5084V14.3571ZM22.5084 20.7857H24.1155V22.3929H22.5084V20.7857ZM22.5084 19.1786H24.1155V20.7857H22.5084V19.1786ZM22.5084 17.5714H24.1155V19.1786H22.5084V17.5714ZM22.5084 15.9643H24.1155V17.5714H22.5084V15.9643ZM22.5084 22.3929H24.1155V24H22.5084V22.3929ZM20.9012 14.3571H22.5084V15.9643H20.9012V14.3571ZM19.2941 14.3571H20.9012V15.9643H19.2941V14.3571ZM17.6869 14.3571H19.2941V15.9643H17.6869V14.3571ZM17.6869 15.9643H19.2941V17.5714H17.6869V15.9643ZM19.2941 15.9643H20.9012V17.5714H19.2941V15.9643ZM20.9012 15.9643H22.5084V17.5714H20.9012V15.9643Z" fill="#19F956"/>
<path d="M109 9.53571H110.607V11.1429H109V9.53571ZM110.607 9.53571H112.214V11.1429H110.607V9.53571ZM110.607 11.1429H112.214V12.75H110.607V11.1429ZM109 11.1429H110.607V12.75H109V11.1429ZM112.214 11.1429H113.821V12.75H112.214V11.1429ZM113.821 11.1429H115.429V12.75H113.821V11.1429ZM112.214 12.75H113.821V14.3571H112.214V12.75ZM113.821 12.75H115.429V14.3571H113.821V12.75ZM115.429 12.75H117.036V14.3571H115.429V12.75ZM117.036 12.75H118.643V14.3571H117.036V12.75ZM117.036 14.3571H118.643V15.9643H117.036V14.3571ZM115.429 14.3571H117.036V15.9643H115.429V14.3571ZM118.643 14.3571H120.25V15.9643H118.643V14.3571ZM120.25 14.3571H121.857V15.9643H120.25V14.3571ZM120.25 15.9643H121.857V17.5714H120.25V15.9643ZM118.643 15.9643H120.25V17.5714H118.643V15.9643ZM118.643 17.5714H120.25V19.1786H118.643V17.5714ZM120.25 17.5714H121.857V19.1786H120.25V17.5714ZM117.036 17.5714H118.643V19.1786H117.036V17.5714ZM117.036 15.9643H118.643V17.5714H117.036V15.9643ZM117.036 19.1786H118.643V20.7857H117.036V19.1786ZM115.429 19.1786H117.036V20.7857H115.429V19.1786ZM115.429 17.5714H117.036V19.1786H115.429V17.5714ZM113.821 19.1786H115.429V20.7857H113.821V19.1786ZM113.821 20.7857H115.429V22.3929H113.821V20.7857ZM112.214 20.7857H113.821V22.3929H112.214V20.7857ZM112.214 19.1786H113.821V20.7857H112.214V19.1786ZM110.607 20.7857H112.214V22.3929H110.607V20.7857ZM109 20.7857H110.607V22.3929H109V20.7857ZM109 22.3929H110.607V24H109V22.3929ZM110.607 22.3929H112.214V24H110.607V22.3929ZM112.214 22.3929H113.821V24H112.214V22.3929ZM115.429 20.7857H117.036V22.3929H115.429V20.7857ZM118.643 19.1786H120.25V20.7857H118.643V19.1786ZM112.214 9.53571H113.821V11.1429H112.214V9.53571ZM115.429 11.1429H117.036V12.75H115.429V11.1429ZM118.643 12.75H120.25V14.3571H118.643V12.75Z" fill="#19F956"/>
<path d="M31.2143 11.1429H32.8214V12.75H31.2143V11.1429ZM29.6071 11.1429H31.2143V12.75H29.6071V11.1429ZM29.6071 12.75H31.2143V14.3571H29.6071V12.75ZM31.2143 12.75H32.8214V14.3571H31.2143V12.75ZM32.8214 11.1429H34.4286V12.75H32.8214V11.1429ZM34.4286 11.1429H36.0357V12.75H34.4286V11.1429ZM36.0357 11.1429H37.6429V12.75H36.0357V11.1429ZM36.0357 12.75H37.6429V14.3571H36.0357V12.75ZM34.4286 12.75H36.0357V14.3571H34.4286V12.75ZM37.6429 12.75H39.25V14.3571H37.6429V12.75ZM37.6429 14.3571H39.25V15.9643H37.6429V14.3571ZM37.6429 20.7857H39.25V22.3929H37.6429V20.7857ZM36.0357 20.7857H37.6429V22.3929H36.0357V20.7857ZM36.0357 14.3571H37.6429V15.9643H36.0357V14.3571ZM34.4286 20.7857H36.0357V22.3929H34.4286V20.7857ZM36.0357 22.3929H37.6429V24H36.0357V22.3929ZM34.4286 22.3929H36.0357V24H34.4286V22.3929ZM32.8214 22.3929H34.4286V24H32.8214V22.3929ZM31.2143 22.3929H32.8214V24H31.2143V22.3929ZM29.6071 22.3929H31.2143V24H29.6071V22.3929ZM29.6071 20.7857H31.2143V22.3929H29.6071V20.7857ZM31.2143 20.7857H32.8214V22.3929H31.2143V20.7857ZM29.6071 19.1786H31.2143V20.7857H29.6071V19.1786ZM28 20.7857H29.6071V22.3929H28V20.7857ZM28 19.1786H29.6071V20.7857H28V19.1786ZM28 17.5714H29.6071V19.1786H28V17.5714ZM28 15.9643H29.6071V17.5714H28V15.9643ZM28 14.3571H29.6071V15.9643H28V14.3571ZM28 12.75H29.6071V14.3571H28V12.75ZM29.6071 14.3571H31.2143V15.9643H29.6071V14.3571ZM29.6071 15.9643H31.2143V17.5714H29.6071V15.9643ZM29.6071 17.5714H31.2143V19.1786H29.6071V17.5714ZM32.8214 20.7857H34.4286V22.3929H32.8214V20.7857ZM32.8214 12.75H34.4286V14.3571H32.8214V12.75ZM36.0357 15.9643H37.6429V17.5714H36.0357V15.9643ZM37.6429 15.9643H39.25V17.5714H37.6429V15.9643ZM31.2143 17.5714H32.8214V19.1786H31.2143V17.5714ZM32.8214 17.5714H34.4286V19.1786H32.8214V17.5714ZM34.4286 17.5714H36.0357V19.1786H34.4286V17.5714ZM36.0357 17.5714H37.6429V19.1786H36.0357V17.5714ZM37.6429 17.5714H39.25V19.1786H37.6429V17.5714ZM34.4286 15.9643H36.0357V17.5714H34.4286V15.9643ZM32.8214 15.9643H34.4286V17.5714H32.8214V15.9643ZM31.2143 15.9643H32.8214V17.5714H31.2143V15.9643ZM40.8613 12.75H42.4685V14.3571H40.8613V12.75ZM40.8613 11.1429H42.4685V12.75H40.8613V11.1429ZM42.4685 11.1429H44.0756V12.75H42.4685V11.1429ZM42.4685 12.75H44.0756V14.3571H42.4685V12.75ZM42.4685 14.3571H44.0756V15.9643H42.4685V14.3571ZM42.4685 15.9643H44.0756V17.5714H42.4685V15.9643ZM42.4685 17.5714H44.0756V19.1786H42.4685V17.5714ZM40.8613 17.5714H42.4685V19.1786H40.8613V17.5714ZM40.8613 15.9643H42.4685V17.5714H40.8613V15.9643ZM40.8613 14.3571H42.4685V15.9643H40.8613V14.3571ZM40.8613 19.1786H42.4685V20.7857H40.8613V19.1786ZM42.4685 19.1786H44.0756V20.7857H42.4685V19.1786ZM42.4685 20.7857H44.0756V22.3929H42.4685V20.7857ZM42.4685 22.3929H44.0756V24H42.4685V22.3929ZM40.8613 22.3929H42.4685V24H40.8613V22.3929ZM40.8613 20.7857H42.4685V22.3929H40.8613V20.7857ZM48.897 22.3929H50.5042V24H48.897V22.3929ZM50.5042 22.3929H52.1113V24H50.5042V22.3929ZM50.5042 20.7857H52.1113V22.3929H50.5042V20.7857ZM50.5042 19.1786H52.1113V20.7857H50.5042V19.1786ZM50.5042 17.5714H52.1113V19.1786H50.5042V17.5714ZM50.5042 15.9643H52.1113V17.5714H50.5042V15.9643ZM50.5042 14.3571H52.1113V15.9643H50.5042V14.3571ZM50.5042 12.75H52.1113V14.3571H50.5042V12.75ZM48.897 15.9643H50.5042V17.5714H48.897V15.9643ZM48.897 17.5714H50.5042V19.1786H48.897V17.5714ZM48.897 19.1786H50.5042V20.7857H48.897V19.1786ZM48.897 20.7857H50.5042V22.3929H48.897V20.7857ZM48.897 14.3571H50.5042V15.9643H48.897V14.3571ZM44.0756 12.75H45.6828V14.3571H44.0756V12.75ZM45.6828 12.75H47.2899V14.3571H45.6828V12.75ZM47.2899 12.75H48.897V14.3571H47.2899V12.75ZM47.2899 11.1429H48.897V12.75H47.2899V11.1429ZM48.897 11.1429H50.5042V12.75H48.897V11.1429ZM48.897 12.75H50.5042V14.3571H48.897V12.75ZM45.6828 11.1429H47.2899V12.75H45.6828V11.1429ZM53.7227 12.75H55.3298V14.3571H53.7227V12.75ZM53.7227 11.1429H55.3298V12.75H53.7227V11.1429ZM55.3298 11.1429H56.9369V12.75H55.3298V11.1429ZM55.3298 12.75H56.9369V14.3571H55.3298V12.75ZM55.3298 14.3571H56.9369V15.9643H55.3298V14.3571ZM55.3298 15.9643H56.9369V17.5714H55.3298V15.9643ZM55.3298 17.5714H56.9369V19.1786H55.3298V17.5714ZM53.7227 17.5714H55.3298V19.1786H53.7227V17.5714ZM53.7227 15.9643H55.3298V17.5714H53.7227V15.9643ZM53.7227 14.3571H55.3298V15.9643H53.7227V14.3571ZM53.7227 19.1786H55.3298V20.7857H53.7227V19.1786ZM55.3298 19.1786H56.9369V20.7857H55.3298V19.1786ZM55.3298 20.7857H56.9369V22.3929H55.3298V20.7857ZM55.3298 22.3929H56.9369V24H55.3298V22.3929ZM53.7227 22.3929H55.3298V24H53.7227V22.3929ZM53.7227 20.7857H55.3298V22.3929H53.7227V20.7857ZM56.9369 12.75H58.5441V14.3571H56.9369V12.75ZM58.5441 12.75H60.1512V14.3571H58.5441V12.75ZM60.1512 12.75H61.7584V14.3571H60.1512V12.75ZM60.1512 11.1429H61.7584V12.75H60.1512V11.1429ZM58.5441 11.1429H60.1512V12.75H58.5441V11.1429ZM56.9369 14.3571H58.5441V15.9643H56.9369V14.3571ZM61.7584 12.75H63.3655V14.3571H61.7584V12.75ZM60.1512 14.3571H61.7584V15.9643H60.1512V14.3571ZM64.9727 7.92857H68.1869V11.1429H64.9727V7.92857ZM64.9727 12.75H68.1869V24H64.9727V12.75ZM81.0566 12.75V14.3571H79.4495V12.75H81.0566ZM81.0566 11.1429V12.75H79.4495V11.1429H81.0566ZM79.4495 11.1429V12.75H77.8424V11.1429H79.4495ZM79.4495 12.75V14.3571H77.8424V12.75H79.4495ZM79.4495 14.3571V15.9643H77.8424V14.3571H79.4495ZM79.4495 15.9643V17.5714H77.8424V15.9643H79.4495ZM79.4495 17.5714V19.1786H77.8424V17.5714H79.4495ZM81.0566 17.5714V19.1786H79.4495V17.5714H81.0566ZM81.0566 15.9643V17.5714H79.4495V15.9643H81.0566ZM81.0566 14.3571V15.9643H79.4495V14.3571H81.0566ZM81.0566 19.1786V20.7857H79.4495V19.1786H81.0566ZM79.4495 19.1786V20.7857H77.8424V19.1786H79.4495ZM79.4495 20.7857V22.3929H77.8424V20.7857H79.4495ZM79.4495 22.3929V24H77.8424V22.3929H79.4495ZM81.0566 22.3929V24H79.4495V22.3929H81.0566ZM81.0566 20.7857V22.3929H79.4495V20.7857H81.0566ZM73.0209 22.3929V24H71.4138V22.3929H73.0209ZM71.4138 20.7857V22.3929H69.8066V20.7857H71.4138ZM71.4138 19.1786V20.7857H69.8066V19.1786H71.4138ZM71.4138 17.5714V19.1786H69.8066V17.5714H71.4138ZM71.4138 15.9643V17.5714H69.8066V15.9643H71.4138ZM71.4138 14.3571V15.9643H69.8066V14.3571H71.4138ZM71.4138 12.75V14.3571H69.8066V12.75H71.4138ZM73.0209 15.9643V17.5714H71.4138V15.9643H73.0209ZM73.0209 17.5714V19.1786H71.4138V17.5714H73.0209ZM73.0209 19.1786V20.7857H71.4138V19.1786H73.0209ZM73.0209 20.7857V22.3929H71.4138V20.7857H73.0209ZM73.0209 14.3571V15.9643H71.4138V14.3571H73.0209ZM74.6281 12.75V14.3571H73.0209V12.75H74.6281ZM74.6281 11.1429V12.75H73.0209V11.1429H74.6281ZM73.0209 11.1429V12.75H71.4138V11.1429H73.0209ZM73.0209 12.75V14.3571H71.4138V12.75H73.0209ZM76.2352 11.1429V12.75H74.6281V11.1429H76.2352ZM76.2352 22.3929V24H74.6281V22.3929H76.2352ZM74.6281 22.3929V24H73.0209V22.3929H74.6281ZM74.6281 20.7857V22.3929H73.0209V20.7857H74.6281ZM76.2352 20.7857V22.3929H74.6281V20.7857H76.2352ZM77.8424 20.7857V22.3929H76.2352V20.7857H77.8424ZM77.8424 11.1429V12.75H76.2352V11.1429H77.8424ZM77.8424 12.75V14.3571H76.2352V12.75H77.8424ZM76.2352 12.75V14.3571H74.6281V12.75H76.2352ZM81.0566 24V25.6071H79.4495V24H81.0566ZM79.4495 24V25.6071H77.8424V24H79.4495ZM79.4495 25.6071V27.2143H77.8424V25.6071H79.4495ZM81.0566 25.6071V27.2143H79.4495V25.6071H81.0566ZM93.918 22.3929H92.3108V20.7857H93.918V22.3929ZM93.918 24H92.3108V22.3929H93.918V24ZM92.3108 24H90.7037V22.3929H92.3108V24ZM92.3108 22.3929H90.7037V20.7857H92.3108V22.3929ZM92.3108 20.7857H90.7037V19.1786H92.3108V20.7857ZM92.3108 19.1786H90.7037V17.5714H92.3108V19.1786ZM92.3108 17.5714H90.7037V15.9643H92.3108V17.5714ZM93.918 17.5714H92.3108V15.9643H93.918V17.5714ZM93.918 19.1786H92.3108V17.5714H93.918V19.1786ZM93.918 20.7857H92.3108V19.1786H93.918V20.7857ZM93.918 15.9643H92.3108V14.3571H93.918V15.9643ZM92.3108 15.9643H90.7037V14.3571H92.3108V15.9643ZM92.3108 14.3571H90.7037V12.75H92.3108V14.3571ZM92.3108 12.75H90.7037V11.1429H92.3108V12.75ZM93.918 12.75H92.3108V11.1429H93.918V12.75ZM93.918 14.3571H92.3108V12.75H93.918V14.3571ZM85.8823 12.75H84.2751V11.1429H85.8823V12.75ZM84.2751 12.75H82.668V11.1429H84.2751V12.75ZM84.2751 14.3571H82.668V12.75H84.2751V14.3571ZM84.2751 15.9643H82.668V14.3571H84.2751V15.9643ZM84.2751 17.5714H82.668V15.9643H84.2751V17.5714ZM84.2751 19.1786H82.668V17.5714H84.2751V19.1786ZM84.2751 20.7857H82.668V19.1786H84.2751V20.7857ZM84.2751 22.3929H82.668V20.7857H84.2751V22.3929ZM85.8823 19.1786H84.2751V17.5714H85.8823V19.1786ZM85.8823 17.5714H84.2751V15.9643H85.8823V17.5714ZM85.8823 15.9643H84.2751V14.3571H85.8823V15.9643ZM85.8823 14.3571H84.2751V12.75H85.8823V14.3571ZM85.8823 20.7857H84.2751V19.1786H85.8823V20.7857ZM90.7037 22.3929H89.0965V20.7857H90.7037V22.3929ZM89.0965 22.3929H87.4894V20.7857H89.0965V22.3929ZM87.4894 22.3929H85.8823V20.7857H87.4894V22.3929ZM87.4894 24H85.8823V22.3929H87.4894V24ZM85.8823 24H84.2751V22.3929H85.8823V24ZM85.8823 22.3929H84.2751V20.7857H85.8823V22.3929ZM89.0965 24H87.4894V22.3929H89.0965V24ZM98.7436 11.1429H100.351V12.75H98.7436V11.1429ZM97.1364 11.1429H98.7436V12.75H97.1364V11.1429ZM97.1364 12.75H98.7436V14.3571H97.1364V12.75ZM98.7436 12.75H100.351V14.3571H98.7436V12.75ZM100.351 11.1429H101.958V12.75H100.351V11.1429ZM101.958 11.1429H103.565V12.75H101.958V11.1429ZM103.565 11.1429H105.172V12.75H103.565V11.1429ZM103.565 12.75H105.172V14.3571H103.565V12.75ZM101.958 12.75H103.565V14.3571H101.958V12.75ZM105.172 12.75H106.779V14.3571H105.172V12.75ZM105.172 14.3571H106.779V15.9643H105.172V14.3571ZM105.172 20.7857H106.779V22.3929H105.172V20.7857ZM103.565 20.7857H105.172V22.3929H103.565V20.7857ZM103.565 14.3571H105.172V15.9643H103.565V14.3571ZM101.958 20.7857H103.565V22.3929H101.958V20.7857ZM103.565 22.3929H105.172V24H103.565V22.3929ZM101.958 22.3929H103.565V24H101.958V22.3929ZM100.351 22.3929H101.958V24H100.351V22.3929ZM98.7436 22.3929H100.351V24H98.7436V22.3929ZM97.1364 22.3929H98.7436V24H97.1364V22.3929ZM97.1364 20.7857H98.7436V22.3929H97.1364V20.7857ZM98.7436 20.7857H100.351V22.3929H98.7436V20.7857ZM97.1364 19.1786H98.7436V20.7857H97.1364V19.1786ZM95.5293 20.7857H97.1364V22.3929H95.5293V20.7857ZM95.5293 19.1786H97.1364V20.7857H95.5293V19.1786ZM95.5293 17.5714H97.1364V19.1786H95.5293V17.5714ZM95.5293 15.9643H97.1364V17.5714H95.5293V15.9643ZM95.5293 14.3571H97.1364V15.9643H95.5293V14.3571ZM95.5293 12.75H97.1364V14.3571H95.5293V12.75ZM97.1364 14.3571H98.7436V15.9643H97.1364V14.3571ZM97.1364 15.9643H98.7436V17.5714H97.1364V15.9643ZM97.1364 17.5714H98.7436V19.1786H97.1364V17.5714ZM100.351 20.7857H101.958V22.3929H100.351V20.7857ZM100.351 12.75H101.958V14.3571H100.351V12.75ZM103.565 15.9643H105.172V17.5714H103.565V15.9643ZM105.172 15.9643H106.779V17.5714H105.172V15.9643ZM98.7436 17.5714H100.351V19.1786H98.7436V17.5714ZM100.351 17.5714H101.958V19.1786H100.351V17.5714ZM101.958 17.5714H103.565V19.1786H101.958V17.5714ZM103.565 17.5714H105.172V19.1786H103.565V17.5714ZM105.172 17.5714H106.779V19.1786H105.172V17.5714ZM101.958 15.9643H103.565V17.5714H101.958V15.9643ZM100.351 15.9643H101.958V17.5714H100.351V15.9643ZM98.7436 15.9643H100.351V17.5714H98.7436V15.9643Z" fill="white"/>
</svg>
